<svg id="Layer_1" data-name="Layer 1" xmlns="http://www.w3.org/2000/svg" viewBox="0 0 512 512"><defs><style>.cls-1{fill:#f4607f;}.cls-2{fill:#fff;}.cls-3{opacity:0.1;}.cls-4{fill:#231f20;}</style></defs><title>speech-bubble-flat</title><path class="cls-1" d="M512,51.2V384a19.17,19.17,0,0,1-19.2,19.2H167.94L96.77,474.37A19,19,0,0,1,83.2,480a18.44,18.44,0,0,1-7.36-1.47A19.18,19.18,0,0,1,64,460.8V403.2H19.2A19.17,19.17,0,0,1,0,384V51.2A19.17,19.17,0,0,1,19.2,32H492.8A19.17,19.17,0,0,1,512,51.2Z"/><path class="cls-2" d="M319.73,218.51a46.16,46.16,0,0,0,0-64.37,44,44,0,0,0-63.09,0l-.63.64-.63-.64a44,44,0,0,0-63.09,0,46.13,46.13,0,0,0,0,64.37L256,281.6Z"/><g class="cls-3"><path class="cls-4" d="M512,51.2V384a19.17,19.17,0,0,1-19.2,19.2H256V32H492.8A19.17,19.17,0,0,1,512,51.2Z"/></g></svg>